<?xml version="1.0" standalone="no"?>
<!DOCTYPE svg PUBLIC "-//W3C//DTD SVG 20010904//EN"
 "http://www.w3.org/TR/2001/REC-SVG-20010904/DTD/svg10.dtd">
<svg version="1.0" xmlns="http://www.w3.org/2000/svg"
 width="685.000000pt" height="349.000000pt" viewBox="0 0 685.000000 349.000000"
 preserveAspectRatio="xMidYMid meet">
<metadata>
Created by potrace 1.15, written by Peter Selinger 2001-2017
</metadata>
<g transform="translate(0.000000,349.000000) scale(0.100000,-0.100000)"
fill="#000000" stroke="none">
<path d="M1173 3330 c-336 -43 -618 -207 -829 -485 -92 -121 -171 -300 -203
-462 -25 -123 -28 -330 -6 -454 26 -148 98 -331 178 -449 50 -74 163 -203 210
-240 l45 -35 4 -191 3 -191 29 -37 c52 -69 28 -67 710 -64 602 3 615 3 643 24
15 11 38 40 51 64 20 41 22 58 22 211 0 164 0 167 23 182 45 29 179 171 229
241 100 141 175 320 203 484 22 126 19 332 -6 455 -93 463 -460 831 -924 928
-109 22 -284 31 -382 19z m247 -170 c235 -29 426 -120 598 -285 122 -116 209
-252 263 -412 41 -122 52 -212 46 -370 -5 -150 -28 -249 -87 -379 -64 -142
-191 -299 -316 -391 l-64 -47 0 -193 0 -193 -560 0 -560 0 0 199 0 200 -58 44
c-168 130 -293 315 -358 534 -32 108 -44 319 -24 439 34 212 142 417 302 569
96 93 167 142 281 195 174 82 355 112 537 90z"/>
<path d="M1234 2618 c10 -141 17 -388 11 -388 -3 0 -94 54 -202 121 -107 66
-196 119 -197 117 -2 -2 -18 -30 -36 -62 -29 -51 -31 -60 -18 -70 9 -6 99 -56
202 -111 102 -55 186 -102 186 -105 0 -3 -90 -54 -200 -114 -110 -60 -200
-113 -200 -117 0 -7 51 -97 66 -118 2 -2 90 50 196 115 106 64 197 119 201
122 8 4 3 -229 -9 -385 l-5 -73 77 0 77 0 -7 231 -7 231 33 -20 c18 -11 107
-65 197 -121 91 -55 168 -98 172 -95 19 11 71 117 61 123 -6 3 -96 53 -201
111 -105 58 -191 108 -191 111 0 3 90 54 200 113 110 59 200 111 200 114 -1
18 -69 117 -79 115 -6 -2 -94 -55 -196 -118 -102 -63 -188 -115 -191 -115 -3
0 -2 104 2 230 l7 230 -77 0 -77 0 5 -72z"/>
<path d="M3112 2270 c-195 -51 -329 -178 -399 -377 -26 -72 -28 -90 -28 -233
0 -137 3 -163 24 -229 26 -80 99 -198 152 -247 52 -48 136 -98 219 -130 71
-27 83 -28 235 -29 172 0 208 7 321 61 57 27 214 168 214 192 0 5 -29 29 -65
52 l-65 42 -44 -49 c-144 -160 -432 -191 -616 -65 -145 99 -214 272 -189 475
22 179 103 297 249 366 49 23 67 26 165 26 92 0 119 -4 167 -23 106 -43 187
-145 210 -264 l13 -68 82 0 83 0 0 250 0 250 -85 0 -85 0 0 -75 0 -74 -44 44
c-49 49 -125 91 -201 111 -73 20 -226 17 -313 -6z"/>
<path d="M4552 2270 c-157 -41 -302 -149 -369 -276 -61 -115 -78 -193 -78
-349 1 -126 3 -148 28 -219 48 -136 113 -226 216 -295 120 -81 223 -111 387
-111 225 0 400 78 515 230 85 113 122 231 122 400 0 201 -54 345 -177 465 -80
79 -179 134 -286 159 -92 22 -266 20 -358 -4z m315 -155 c262 -78 390 -382
283 -669 -42 -112 -149 -209 -274 -248 -49 -16 -81 -19 -162 -16 -92 4 -109 8
-175 41 -77 37 -115 68 -161 128 -103 137 -118 381 -33 549 51 101 167 194
271 219 63 15 196 12 251 -4z"/>
<path d="M6140 2276 c-115 -31 -219 -114 -278 -223 l-31 -58 -1 138 0 137 -95
0 -95 0 0 -610 0 -610 95 0 95 0 0 314 c0 354 6 399 67 524 44 89 121 170 200
208 52 26 68 29 158 29 84 0 107 -4 141 -22 49 -26 89 -71 118 -133 20 -43 21
-62 24 -482 l3 -438 94 0 95 0 0 419 c0 442 -5 500 -48 601 -24 57 -103 145
-151 170 -94 47 -285 65 -391 36z"/>
<path d="M595 635 c-21 -20 -25 -33 -25 -88 0 -53 4 -67 23 -85 l23 -22 686 0
687 0 20 26 c32 41 30 136 -4 169 l-24 25 -681 0 -681 0 -24 -25z"/>
<path d="M595 365 c-21 -20 -25 -33 -25 -88 0 -53 4 -67 23 -85 l23 -22 686 0
687 0 20 26 c32 41 30 136 -4 169 l-24 25 -681 0 -681 0 -24 -25z"/>
</g>
</svg>
