<svg xmlns="http://www.w3.org/2000/svg" width="685" height="349" viewBox="0 0 685 349">
  <g fill="#000000" transform="translate(20 -60)">
    <path stroke="#FCDE50" stroke-width="16" d="M45.6448598,284.652582 C17.9773129,264.453988 0,231.761919 0,194.868479 C0,133.527714 49.6963928,83.8011978 111,83.8011978 C172.303607,83.8011978 222,133.527714 222,194.868479 C222,232.676242 203.120589,266.071809 174.280374,286.131169 L174.280374,320.772025 C174.280374,325.190303 170.698652,328.772025 166.280374,328.772025 L53.6448598,328.772025 C49.2265818,328.772025 45.6448598,325.190303 45.6448598,320.772025 L45.6448598,284.652582 Z"/>
    <rect width="145.234" height="21.69" x="37.346" y="343.304" fill="#FCDE50" rx="8"/>
    <rect width="145.234" height="21.69" x="37.346" y="370.293" fill="#FCDE50" rx="8"/>
    <text fill="#FCDE50" font-family="AnonymousPro, Anonymous Pro" font-size="250">
      <tspan x="54.829" y="254">*</tspan>
    </text>
    <text fill="#FCDE50" font-family="AnonymousPro, Anonymous Pro" font-size="266">
      <tspan x="248" y="304">con</tspan>
    </text>
  </g>
</svg>
